<svg aria-hidden="true" style="position: center; width: 0; height: 0; overflow: hidden;" version="1.1" xmlns="http://www.w3.org/2000/svg" xmlns:xlink="http://www.w3.org/1999/xlink">
<defs>
<symbol id="icon-archive" viewBox="0 0 32 32">
<path d="M13.070 5.202l-5.796-1.553c-0.533-0.143-1.081 0.174-1.224 0.707l-5.953 22.216c-0.143 0.534 0.174 1.082 0.708 1.226l5.795 1.553c0.533 0.143 1.082-0.174 1.225-0.707l5.953-22.217c0.142-0.533-0.174-1.082-0.708-1.225zM7.78 24.943c-0.429 1.601-2.073 2.55-3.674 2.121s-2.55-2.073-2.121-3.674 2.073-2.551 3.674-2.121c1.601 0.429 2.55 2.074 2.121 3.674zM8.929 20.657l-5.795-1.553 3.105-11.591 5.796 1.554-3.106 11.59zM18.938 23c-0.829 0-1.5 0.672-1.5 1.5s0.671 1.5 1.5 1.5c0.828 0 1.5-0.672 1.5-1.5s-0.672-1.5-1.5-1.5zM10.811 9.773l-3.865-1.035-0.258 0.966 3.864 1.035 0.259-0.966zM10.033 12.671l0.26-0.966-3.864-1.035-0.259 0.966 3.863 1.035zM5.255 22.778c-0.8-0.215-1.623 0.261-1.837 1.061-0.215 0.801 0.26 1.623 1.061 1.837 0.8 0.215 1.623-0.26 1.837-1.061s-0.261-1.622-1.061-1.837zM29.938 9h-4v1h4v-1zM29.938 13h-4v1h4v-1zM29.938 11h-4v1h4v-1zM27.938 23c-0.829 0-1.5 0.672-1.5 1.5s0.671 1.5 1.5 1.5c0.828 0 1.5-0.672 1.5-1.5s-0.672-1.5-1.5-1.5zM30.938 4h-6c-0.553 0-1 0.447-1 1v23c0 0.552 0.447 1 1 1h6c0.552 0 1-0.448 1-1v-23c0-0.553-0.449-1-1-1zM27.938 27.5c-1.657 0-3-1.344-3-3 0-1.657 1.343-3 3-3 1.656 0 3 1.343 3 3 0 1.656-1.344 3-3 3zM30.938 20h-6v-12h6v12zM20.938 9h-4v1h4v-1zM20.938 13h-4v1h4v-1zM21.938 4h-6c-0.553 0-1 0.447-1 1v23c0 0.552 0.447 1 1 1h6c0.552 0 1-0.448 1-1v-23c0-0.553-0.449-1-1-1zM18.938 27.438c-1.657 0-3-1.344-3-3 0-1.657 1.343-3 3-3 1.656 0 3 1.343 3 3 0 1.656-1.344 3-3 3zM21.938 20h-6v-12h6v12zM20.938 11h-4v1h4v-1zM5.652 13.567l3.863 1.035 0.26-0.966-3.864-1.035-0.259 0.966z"></path>
</symbol>
<symbol id="icon-star" viewBox="0 0 32 32">
<path d="M16 23l9 6-4-10 9-6h-10l-4-10-4 10h-10l9 6-4 10 9-6zM16 21.753l-6.8 4.547 3.2-7.7-7.2-4.6h7.5l3.3-8.5 3.3 8.5h7.5l-7.2 4.6 3.2 7.7-6.8-4.547z"></path>
</symbol>
<symbol id="icon-star1" viewBox="0 0 32 32">
<path d="M16 23l-9 6 4-10-9-6h10l4-10 4 10h10l-9 6 4 10z"></path>
</symbol>
<symbol id="icon-thumb-up" viewBox="0 0 32 32">
<path d="M11 13h-6.002c-1.104 0-1.998 0.89-1.998 2v13c0 1.105 0.887 2 1.998 2h19.494c1.385 0 2.508-1.11 2.508-2.5 0-0.563-0.185-1.082-0.499-1.5 1.381-0.005 2.499-1.113 2.499-2.5 0-0.636-0.236-1.216-0.628-1.657 0.951-0.353 1.628-1.263 1.628-2.343 0-0.636-0.236-1.216-0.628-1.657 0.951-0.353 1.628-1.263 1.628-2.343 0-1.381-1.115-2.5-2.508-2.5h-5.992c1.049-5.017 0.547-11-3.5-11s-1.934 4.788-3.5 7.763c-1.566 2.975-4.5 3.237-4.5 3.237v0 0zM4.991 14h5.009v15h-5.009c-0.54 0-0.991-0.451-0.991-1.007v-12.985c0-0.559 0.444-1.007 0.991-1.007zM7 27c0.552 0 1-0.448 1-1s-0.448-1-1-1c-0.552 0-1 0.448-1 1s0.448 1 1 1v0 0zM21.3 14h7.207c0.829 0 1.493 0.672 1.493 1.5 0 0.834-0.668 1.5-1.493 1.5h-3.507v1h2.507c0.829 0 1.493 0.672 1.493 1.5 0 0.834-0.668 1.5-1.493 1.5h-3.507v1h2.507c0.829 0 1.493 0.672 1.493 1.5 0 0.834-0.668 1.5-1.493 1.5h-3.507v1h1.498c0.831 0 1.502 0.672 1.502 1.5 0 0.834-0.672 1.5-1.502 1.5h-13.498c0 0 0-13 0-15 1.5 0 2.806-1 2.806-1 0.91-0.568 1.896-1.428 2.565-2.699 1.566-2.975-0.242-7.301 2.629-7.301 2.96 0 3.448 4.853 2.501 10 0 0-0.201 1-0.201 1v0 0z"></path>
</symbol>
<symbol id="icon-thumb-up1" viewBox="0 0 32 32">
<path d="M10 29h13.498c0.829 0 1.502-0.666 1.502-1.5 0-0.828-0.671-1.5-1.502-1.5h-1.498v-1h3.507c0.825 0 1.493-0.666 1.493-1.5 0-0.828-0.664-1.5-1.493-1.5h-2.507v-1h3.507c0.825 0 1.493-0.666 1.493-1.5 0-0.828-0.664-1.5-1.493-1.5h-2.507v-1h3.507c0.825 0 1.493-0.666 1.493-1.5 0-0.828-0.664-1.5-1.493-1.5h-7.207c1.201-5.5 0.852-11-2.3-11-2.871 0-1.063 4.326-2.629 7.301s-4.871 3.699-4.871 3.699h-0.5v15zM4.998 14h4.002v15h-4.002c-1.1 0-1.998-0.892-1.998-1.992v-11.016c0-1.098 0.894-1.992 1.998-1.992zM6 27c0.552 0 1-0.448 1-1s-0.448-1-1-1c-0.552 0-1 0.448-1 1s0.448 1 1 1v0 0z"></path>
</symbol>
<symbol id="icon-thumb-down" viewBox="0 0 32 32">
<path d="M10 19h-6.002c-1.104 0-1.998-0.89-1.998-2v-13c0-1.105 0.887-2 1.998-2h19.494c1.385 0 2.508 1.11 2.508 2.5 0 0.563-0.185 1.082-0.499 1.5 1.381 0.005 2.499 1.113 2.499 2.5 0 0.636-0.236 1.216-0.628 1.657 0.951 0.353 1.628 1.263 1.628 2.343 0 0.636-0.236 1.216-0.628 1.657 0.951 0.353 1.628 1.263 1.628 2.343 0 1.381-1.115 2.5-2.508 2.5h-5.992c1.049 5.017 0.547 11-3.5 11s-1.934-4.788-3.5-7.763c-1.566-2.975-4.5-3.237-4.5-3.237v0 0zM3.991 18h5.009v-15h-5.009c-0.54 0-0.991 0.451-0.991 1.007v12.985c0 0.559 0.444 1.007 0.991 1.007zM6 5c0.552 0 1 0.448 1 1s-0.448 1-1 1c-0.552 0-1-0.448-1-1s0.448-1 1-1v0 0zM20.3 18h7.207c0.829 0 1.493-0.672 1.493-1.5 0-0.834-0.668-1.5-1.493-1.5h-3.507v-1h2.507c0.829 0 1.493-0.672 1.493-1.5 0-0.834-0.668-1.5-1.493-1.5h-3.507v-1h2.507c0.829 0 1.493-0.672 1.493-1.5 0-0.834-0.668-1.5-1.493-1.5h-3.507v-1h1.498c0.831 0 1.502-0.672 1.502-1.5 0-0.834-0.672-1.5-1.502-1.5h-13.498c0 0 0 13 0 15 1.5 0 2.806 1 2.806 1 0.91 0.568 1.896 1.428 2.565 2.699 1.566 2.975-0.242 7.301 2.629 7.301 2.96 0 3.448-4.853 2.501-10 0 0-0.201-1-0.201-1v0 0z"></path>
</symbol>
<symbol id="icon-thumb-down1" viewBox="0 0 32 32">
<path d="M10 3h13.498c0.829 0 1.502 0.666 1.502 1.5 0 0.828-0.671 1.5-1.502 1.5h-1.498v1h3.507c0.825 0 1.493 0.666 1.493 1.5 0 0.828-0.664 1.5-1.493 1.5h-2.507v1h3.507c0.825 0 1.493 0.666 1.493 1.5 0 0.828-0.664 1.5-1.493 1.5h-2.507v1h3.507c0.825 0 1.493 0.666 1.493 1.5 0 0.828-0.664 1.5-1.493 1.5h-7.207c1.201 5.5 0.852 11-2.3 11-2.871 0-1.063-4.326-2.629-7.301s-4.871-3.699-4.871-3.699h-0.5v-15zM4.998 18h4.002v-15h-4.002c-1.1 0-1.998 0.892-1.998 1.992v11.016c0 1.099 0.894 1.992 1.998 1.992zM6 5c0.552 0 1 0.448 1 1s-0.448 1-1 1c-0.552 0-1-0.448-1-1s0.448-1 1-1v0 0z"></path>
</symbol>
<symbol id="icon-collections_bookmark" viewBox="0 0 24 24">
<path d="M20.016 12v-8.016h-5.016v8.016l2.484-1.5zM20.016 2.016q0.797 0 1.383 0.586t0.586 1.383v12q0 0.797-0.586 1.406t-1.383 0.609h-12q-0.797 0-1.406-0.609t-0.609-1.406v-12q0-0.797 0.609-1.383t1.406-0.586h12zM3.984 6v14.016h14.016v1.969h-14.016q-0.797 0-1.383-0.586t-0.586-1.383v-14.016h1.969z"></path>
</symbol>
<symbol id="icon-heart-outlined" viewBox="0 0 20 20">
<path d="M17.19 4.156c-1.672-1.535-4.383-1.535-6.055 0l-1.135 1.041-1.136-1.041c-1.672-1.535-4.382-1.535-6.054 0-1.881 1.726-1.881 4.519 0 6.245l7.19 6.599 7.19-6.599c1.88-1.726 1.88-4.52 0-6.245zM16.124 9.375l-6.124 5.715-6.125-5.715c-0.617-0.567-0.856-1.307-0.856-2.094s0.138-1.433 0.756-1.999c0.545-0.501 1.278-0.777 2.063-0.777s1.517 0.476 2.062 0.978l2.1 1.825 2.099-1.826c0.546-0.502 1.278-0.978 2.063-0.978s1.518 0.276 2.063 0.777c0.618 0.566 0.755 1.212 0.755 1.999s-0.238 1.528-0.856 2.095z"></path>
</symbol>
<symbol id="icon-heart" viewBox="0 0 20 20">
<path d="M17.19 4.155c-1.672-1.534-4.383-1.534-6.055 0l-1.135 1.042-1.136-1.042c-1.672-1.534-4.382-1.534-6.054 0-1.881 1.727-1.881 4.52 0 6.246l7.19 6.599 7.19-6.599c1.88-1.726 1.88-4.52 0-6.246z"></path>
</symbol>
<symbol id="icon-information-outline" viewBox="0 0 20 20">
<path d="M2.93 17.070c-1.884-1.821-3.053-4.37-3.053-7.193 0-5.523 4.477-10 10-10 2.823 0 5.372 1.169 7.19 3.050l0.003 0.003c1.737 1.796 2.807 4.247 2.807 6.947 0 5.523-4.477 10-10 10-2.7 0-5.151-1.070-6.95-2.81l0.003 0.003zM15.66 15.66c1.449-1.449 2.344-3.45 2.344-5.66 0-4.421-3.584-8.004-8.004-8.004-2.21 0-4.211 0.896-5.66 2.344v0c-1.449 1.449-2.344 3.45-2.344 5.66 0 4.421 3.584 8.004 8.004 8.004 2.21 0 4.211-0.896 5.66-2.344v0zM9 11v-2h2v6h-2v-4zM9 5h2v2h-2v-2z"></path>
</symbol>
<symbol id="icon-information-solid" viewBox="0 0 20 20">
<path d="M2.93 17.070c-1.884-1.821-3.053-4.37-3.053-7.193 0-5.523 4.477-10 10-10 2.823 0 5.372 1.169 7.19 3.050l0.003 0.003c1.737 1.796 2.807 4.247 2.807 6.947 0 5.523-4.477 10-10 10-2.7 0-5.151-1.070-6.95-2.81l0.003 0.003zM9 11v4h2v-6h-2v2zM9 5v2h2v-2h-2z"></path>
</symbol>
<symbol id="icon-load-balancer" viewBox="0 0 20 20">
<path d="M17 12h-6v4h1v4h-4v-4h1v-4h-6v4h1v4h-4v-4h1v-4c0-1.105 0.895-2 2-2v0h6v-4h-2v-6h6v6h-2v4h6c1.105 0 2 0.895 2 2v0 4h1v4h-4v-4h1v-4z"></path>
</symbol>
<symbol id="icon-user" viewBox="0 0 32 32">
<path d="M5 5c0-2.761 2.239-5 5-5s5 2.239 5 5v0 2c0 2.761-2.239 5-5 5s-5-2.239-5-5v0-2zM0 16.68c2.86-1.685 6.301-2.68 9.974-2.68 0.009 0 0.018 0 0.027 0h-0.001c3.64 0 7.060 0.97 10 2.68v3.32h-20v-3.32z"></path>
</symbol>
<symbol id="icon-user-solid-circle" viewBox="0 0 20 20">
<path d="M10 20c-5.523 0-10-4.477-10-10s4.477-10 10-10v0c5.523 0 10 4.477 10 10s-4.477 10-10 10v0zM7 6v2c0 1.657 1.343 3 3 3s3-1.343 3-3v0-2c0-1.657-1.343-3-3-3s-3 1.343-3 3v0zM3.35 14.44c1.456 2.155 3.89 3.553 6.65 3.553s5.194-1.398 6.632-3.525l0.018-0.028c-1.951-0.918-4.238-1.453-6.65-1.453s-4.699 0.536-6.748 1.495l0.098-0.041z"></path>
</symbol>
<symbol id="icon-home" viewBox="0 0 32 32">
<path d="M32 18.451l-16-12.42-16 12.42v-5.064l16-12.42 16 12.42zM28 18v12h-8v-8h-8v8h-8v-12l12-9z"></path>
</symbol>
<symbol id="icon-quill" viewBox="0 0 32 32">
<path d="M0 32c4-12 14.469-32 32-32-8.219 6.594-12 22-18 22s-6 0-6 0l-6 10h-2z"></path>
</symbol>
<symbol id="icon-books" viewBox="0 0 32 32">
<path d="M7 4h-6c-0.55 0-1 0.45-1 1v22c0 0.55 0.45 1 1 1h6c0.55 0 1-0.45 1-1v-22c0-0.55-0.45-1-1-1zM6 10h-4v-2h4v2z"></path>
<path d="M17 4h-6c-0.55 0-1 0.45-1 1v22c0 0.55 0.45 1 1 1h6c0.55 0 1-0.45 1-1v-22c0-0.55-0.45-1-1-1zM16 10h-4v-2h4v2z"></path>
<path d="M23.909 5.546l-5.358 2.7c-0.491 0.247-0.691 0.852-0.443 1.343l8.999 17.861c0.247 0.491 0.852 0.691 1.343 0.443l5.358-2.7c0.491-0.247 0.691-0.852 0.443-1.343l-8.999-17.861c-0.247-0.491-0.852-0.691-1.343-0.443z"></path>
</symbol>
<symbol id="icon-location2" viewBox="0 0 32 32">
<path d="M16 0c-5.523 0-10 4.477-10 10 0 10 10 22 10 22s10-12 10-22c0-5.523-4.477-10-10-10zM16 16.125c-3.383 0-6.125-2.742-6.125-6.125s2.742-6.125 6.125-6.125 6.125 2.742 6.125 6.125-2.742 6.125-6.125 6.125zM12.125 10c0-2.14 1.735-3.875 3.875-3.875s3.875 1.735 3.875 3.875c0 2.14-1.735 3.875-3.875 3.875s-3.875-1.735-3.875-3.875z"></path>
</symbol>
<symbol id="icon-bubbles" viewBox="0 0 36 32">
<path d="M34 28.161c0 1.422 0.813 2.653 2 3.256v0.498c-0.332 0.045-0.671 0.070-1.016 0.070-2.125 0-4.042-0.892-5.398-2.321-0.819 0.218-1.688 0.336-2.587 0.336-4.971 0-9-3.582-9-8s4.029-8 9-8c4.971 0 9 3.582 9 8 0 1.73-0.618 3.331-1.667 4.64-0.213 0.463-0.333 0.979-0.333 1.522zM16 0c8.702 0 15.781 5.644 15.995 12.672-1.537-0.685-3.237-1.047-4.995-1.047-2.986 0-5.807 1.045-7.942 2.943-2.214 1.968-3.433 4.607-3.433 7.432 0 1.396 0.298 2.747 0.867 3.993-0.163 0.004-0.327 0.007-0.492 0.007-0.849 0-1.682-0.054-2.495-0.158-3.437 3.437-7.539 4.053-11.505 4.144v-0.841c2.142-1.049 4-2.961 4-5.145 0-0.305-0.024-0.604-0.068-0.897-3.619-2.383-5.932-6.024-5.932-10.103 0-7.18 7.163-13 16-13z"></path>
</symbol>
<symbol id="icon-bubbles3" viewBox="0 0 36 32">
<path d="M34 28.161c0 1.422 0.813 2.653 2 3.256v0.498c-0.332 0.045-0.671 0.070-1.016 0.070-2.125 0-4.042-0.892-5.398-2.321-0.819 0.218-1.688 0.336-2.587 0.336-4.971 0-9-3.582-9-8s4.029-8 9-8c4.971 0 9 3.582 9 8 0 1.73-0.618 3.331-1.667 4.64-0.213 0.463-0.333 0.979-0.333 1.522zM7.209 6.912c-2.069 1.681-3.209 3.843-3.209 6.088 0 1.259 0.35 2.481 1.039 3.63 0.711 1.185 1.781 2.268 3.093 3.133 0.949 0.625 1.587 1.623 1.755 2.747 0.056 0.375 0.091 0.753 0.105 1.129 0.233-0.194 0.461-0.401 0.684-0.624 0.755-0.755 1.774-1.172 2.828-1.172 0.168 0 0.336 0.011 0.505 0.032 0.655 0.083 1.323 0.125 1.987 0.126v4c-0.848-0-1.68-0.054-2.492-0.158-3.437 3.437-7.539 4.053-11.505 4.144v-0.841c2.142-1.049 4-2.961 4-5.145 0-0.305-0.024-0.604-0.068-0.897-3.619-2.383-5.932-6.024-5.932-10.103 0-7.18 7.163-13 16-13 8.702 0 15.781 5.644 15.995 12.672-1.284-0.572-2.683-0.919-4.133-1.018-0.36-1.752-1.419-3.401-3.070-4.742-1.104-0.897-2.404-1.606-3.863-2.108-1.553-0.534-3.211-0.804-4.928-0.804s-3.375 0.271-4.928 0.804c-1.46 0.502-2.76 1.211-3.863 2.108z"></path>
</symbol>
<symbol id="icon-users" viewBox="0 0 36 32">
<path d="M24 24.082v-1.649c2.203-1.241 4-4.337 4-7.432 0-4.971 0-9-6-9s-6 4.029-6 9c0 3.096 1.797 6.191 4 7.432v1.649c-6.784 0.555-12 3.888-12 7.918h28c0-4.030-5.216-7.364-12-7.918z"></path>
<path d="M10.225 24.854c1.728-1.13 3.877-1.989 6.243-2.513-0.47-0.556-0.897-1.176-1.265-1.844-0.95-1.726-1.453-3.627-1.453-5.497 0-2.689 0-5.228 0.956-7.305 0.928-2.016 2.598-3.265 4.976-3.734-0.529-2.39-1.936-3.961-5.682-3.961-6 0-6 4.029-6 9 0 3.096 1.797 6.191 4 7.432v1.649c-6.784 0.555-12 3.888-12 7.918h8.719c0.454-0.403 0.956-0.787 1.506-1.146z"></path>
</symbol>
<symbol id="icon-view-show" viewBox="0 0 20 20">
<path d="M0.2 10c1.86-3.592 5.548-6.004 9.8-6.004s7.94 2.412 9.771 5.943l0.029 0.061c-1.86 3.592-5.548 6.004-9.8 6.004s-7.94-2.412-9.771-5.943l-0.029-0.061zM10 14c2.209 0 4-1.791 4-4s-1.791-4-4-4v0c-2.209 0-4 1.791-4 4s1.791 4 4 4v0zM10 12c-1.105 0-2-0.895-2-2s0.895-2 2-2v0c1.105 0 2 0.895 2 2s-0.895 2-2 2v0z"></path>
</symbol>
</defs>
</svg>
